<?xml version="1.0" encoding="iso-8859-1"?>
<!-- Generator: Adobe Illustrator 19.0.0, SVG Export Plug-In . SVG Version: 6.00 Build 0)  -->
<svg version="1.1" id="Layer_1" xmlns="http://www.w3.org/2000/svg" xmlns:xlink="http://www.w3.org/1999/xlink" x="0px" y="0px"
	 width="16px" height="16px" viewBox="0 0 16 16" style="enable-background:new 0 0 16 16;" xml:space="preserve">
<path style="fill:#9B8443;" d="M13.309,6.483c-1.578-0.902-2.89-2.213-3.792-3.792L7.979,0L6.394,2.749
	c-0.909,1.577-2.228,2.884-3.812,3.78L0,7.989l3.005,1.928c1.244,0.798,2.279,1.834,3.078,3.078L8.011,16l1.461-2.583
	c0.896-1.584,2.202-2.901,3.778-3.811L16,8.021L13.309,6.483z M12.608,8.493c-1.775,1.024-3.247,2.508-4.255,4.291l-0.411,0.726
	l-0.777-1.21C6.266,10.9,5.1,9.733,3.7,8.835l-1.21-0.777l0.726-0.41c1.784-1.009,3.268-2.481,4.292-4.256l0.466-0.809L8.4,3.33
	c1.016,1.778,2.492,3.255,4.27,4.27l0.746,0.427L12.608,8.493z"/>
</svg>
